<svg data-v-0dd9719b="" version="1.0" xmlns="http://www.w3.org/2000/svg" xmlns:xlink="http://www.w3.org/1999/xlink" width="100%" height="100%" viewBox="0 0 340.000000 250.000000" preserveAspectRatio="xMidYMid meet" color-interpolation-filters="sRGB" style="margin: auto;"> <rect data-v-0dd9719b="" x="0" y="0" width="100%" height="100%" fill="#fff" fill-opacity="1" class="background"></rect> <rect data-v-0dd9719b="" x="0" y="0" width="100%" height="100%" fill="url(#watermark)" fill-opacity="1" class="watermarklayer"></rect> <g data-v-0dd9719b="" fill="#333" class="icon-text-wrapper icon-svg-group iconsvg" transform="translate(47.62999725341797,96.3109359741211)"><g class="iconsvg-imagesvg" transform="translate(0,5.571239471435547)"><g><rect fill="#333" fill-opacity="0" stroke-width="2" x="0" y="0" width="60" height="46.23564768436464" class="image-rect"></rect> <svg x="0" y="0" width="60" height="46.23564768436464" filtersec="colorsb7420381838" class="image-svg-svg primary" style="overflow: visible;"><svg xmlns="http://www.w3.org/2000/svg" viewBox="0 0 129.77000427246094 100"><title>资源 235</title><path fill="#e3007f" d="M129.77 35.15L64.9 100 0 35.15h29.74L64.9 70.27l35.13-35.12h29.74z"></path><path fill="#009da0" d="M64.9 0l35.13 35.15H29.74L64.9 0z"></path></svg></svg> <!----></g></g> <g transform="translate(67,0)"><g data-gra="path-name" fill-rule="" class="tp-name iconsvg-namesvg" transform="translate(0,0)"><g transform="scale(1)"><g><path d="M13.9 3.87L8.41 3.87 8.41-14.89 37.44-14.89 37.44 3.69 31.72 3.69 31.72 1.89 13.9 1.89 13.9 3.87ZM13.9-10.17L13.9-3.06 31.72-3.06 31.72-10.17 13.9-10.17ZM5.31-17.68L5.31-17.68Q3.78-20.43 1.4-22.59L1.4-22.59Q8.05-25.24 13.5-29.07L13.5-29.07Q19.53-33.34 22.9-38.34L22.9-38.34 27.68-35.87Q26.68-34.52 26.19-33.88L26.19-33.88Q33.52-27.09 44.01-23.27L44.01-23.27Q41.45-20.93 40.32-18.36L40.32-18.36Q36.18-20.34 33.84-21.69L33.84-21.69 33.84-18.77 11.34-18.77 11.34-20.97Q8.14-18.99 5.31-17.68ZM15.48-23.67L15.48-23.67 30.73-23.67Q26.5-26.55 22.9-30.11L22.9-30.11Q19.62-26.68 15.48-23.67ZM50.53 3.96L50.53 3.96Q49.81 3.38 48.44 2.63 47.07 1.89 46.17 1.57L46.17 1.57Q47.92-2.61 48.6-9.36L48.6-9.36Q49.01-13.72 49.01-20.56L49.01-20.56 49.01-37.13 63.09-37.13 63.09-2.43Q63.09-0.45 62.73 0.58L62.73 0.58Q62.33 1.75 61.25 2.38L61.25 2.38Q60.25 3.01 58.68 3.24L58.68 3.24Q57.47 3.42 55.03 3.42L55.03 3.42Q54.77 0.63 53.55-1.75L53.55-1.75Q55.22-1.67 57.42-1.67L57.42-1.67Q58.14-1.71 58.14-2.52L58.14-2.52 58.14-11.56 53.55-11.56Q52.88-1.57 50.53 3.96ZM81.22 2.97L72.72 2.97Q68.49 2.97 66.96 1.35L66.96 1.35Q65.38-0.36 65.38-5.13L65.38-5.13 65.38-36.31 86.81-36.31 86.81-13.28 81.67-13.28 81.67-15.48 70.52-15.48 70.52-5.08Q70.52-3.1 70.99-2.59 71.46-2.07 73.26-2.07L73.26-2.07 80.82-2.07Q82.48-2.07 83.07-3.6L83.07-3.6Q83.56-4.91 83.88-9.67L83.88-9.67Q86.13-8.14 88.69-7.6L88.69-7.6Q88.2-1.67 86.72 0.58L86.72 0.58Q85.09 2.97 81.22 2.97L81.22 2.97ZM53.77-16.56L53.77-16.56 58.14-16.56 58.14-22.09 53.82-22.09 53.82-20.56Q53.82-18 53.77-16.56ZM70.52-31.27L70.52-20.56 73.94-20.56 73.94-31.27 70.52-31.27ZM78.34-31.27L78.34-20.56 81.67-20.56 81.67-31.27 78.34-31.27ZM53.82-32.27L53.82-26.95 58.14-26.95 58.14-32.27 53.82-32.27ZM94.91 3.69L94.91 3.69Q94.59 2.65 93.73 1.28 92.88-0.09 92.07-0.99L92.07-0.99Q98.78-2.25 102.56-4.5L102.56-4.5Q106.02-6.52 107.59-9.81L107.59-9.81 92.47-9.81 92.47-14.71 109.03-14.71Q109.44-17.01 109.66-20.75L109.66-20.75 115.16-20.75Q114.93-17.32 114.57-14.71L114.57-14.71 120.19-14.71Q118.39-16.96 116.33-18.77L116.33-18.77 120.24-20.75Q123.62-17.91 125.06-15.75L125.06-15.75 123.03-14.71 132.48-14.71 132.48-9.81 116.28-9.81Q120.73-2.43 133.56-1.17L133.56-1.17Q132.7-0.32 131.78 1.13 130.86 2.56 130.37 3.69L130.37 3.69Q123.7 2.61 119.43-0.04 115.16-2.7 112.45-7.33L112.45-7.33Q110.52-3.33 106.56-0.72L106.56-0.72Q102.24 2.11 94.91 3.69ZM97.69-17.77L97.69-17.77 94.5-21.78Q97.52-22.86 100.62-24.61L100.62-24.61Q103.95-26.46 106.38-28.53L106.38-28.53 110.52-26.32Q107.69-23.67 104.36-21.42L104.36-21.42Q100.84-19.04 97.69-17.77ZM130.28-21.87L126.9-17.95Q123.21-20.97 114.88-25.15L114.88-25.15 118.08-28.57Q126.31-24.79 130.28-21.87L130.28-21.87ZM98.41-24.39L93.02-24.39 93.02-33.98 109.94-33.98Q109.35-35.59 108.54-37.21L108.54-37.21 114.3-38.43Q115.78-35.46 116.37-33.98L116.37-33.98 131.94-33.98 131.94-24.93 126.31-24.93 126.31-29.29 98.41-29.29 98.41-24.39ZM156.15 4.23L156.15 4.23Q154.66 2.11 152.37 0.4L152.37 0.4Q158.09-2.83 160.78-7.96L160.78-7.96Q162.81-11.79 163.31-17.14L163.31-17.14 154.62-17.14 154.62-22.09 163.44-22.09 163.44-30.6Q159.84-30.02 156.33-29.65L156.33-29.65Q156.01-31.77 154.84-33.98L154.84-33.98Q166.81-35.55 173.03-37.93L173.03-37.93 176.85-33.7Q173.2-32.4 168.7-31.5L168.7-31.5 168.7-22.09 177.93-22.09 177.93-17.14 169.02-17.14Q171.81-4.59 179.14-0.36L179.14-0.36Q178.25 0.36 177.16 1.67 176.09 2.97 175.45 4.05L175.45 4.05Q169.83 0.22 166.68-8.69L166.68-8.69Q163.84-0.72 156.15 4.23ZM137.29 2.52L137.29 2.52 136.03-2.52Q137.29-2.79 138.01-2.97L138.01-2.97 138.01-17.82 142.16-17.82 142.16-4 143.87-4.46 143.87-21.6 138.28-21.6 138.28-36.41 152.87-36.41 152.87-21.6 148.54-21.6 148.54-16.43 153.31-16.43 153.31-11.79 148.54-11.79 148.54-5.63 153.18-6.84 153.85-2.29Q152.82-1.98 150.71-1.35L150.71-1.35Q141.12 1.4 137.29 2.52ZM142.69-31.9L142.69-26.1 148.19-26.1 148.19-31.9 142.69-31.9Z" transform="translate(-1.399999976158142, 38.43000030517578)"></path></g> <!----> <!----> <!----> <!----> <!----> <!----> <!----></g></g> <g data-gra="path-slogan" fill-rule="" class="tp-slogan iconsvg-slogansvg" fill="#333" transform="translate(5,48.65999984741211)"><rect x="0" height="1" y="3.8600001335144043" width="42.150001525878906"></rect> <rect height="1" y="3.8600001335144043" width="42.150001525878906" x="125.59000396728516"></rect> <g transform="translate(45.150001525878906,0)"><g transform="scale(1)"><path d="M2.06-5.06L6.56-5.06L6.56-8.58L7.73-8.58L7.73 0L6.56 0L6.56-3.98L2.06-3.98L2.06 0L0.89 0L0.89-8.58L2.06-8.58L2.06-5.06ZM10.83-1.03L15.98-1.03L15.98 0L9.66 0L9.66-8.58L15.89-8.58L15.89-7.59L10.83-7.59L10.83-4.92L15.52-4.92L15.52-3.89L10.83-3.89L10.83-1.03ZM23.02-3.89L18.80-3.89L18.80 0L17.63 0L17.63-8.58L23.58-8.58L23.58-7.59L18.80-7.59L18.80-4.92L23.02-4.92L23.02-3.89ZM26.06-1.03L31.22-1.03L31.22 0L24.89 0L24.89-8.58L31.13-8.58L31.13-7.59L26.06-7.59L26.06-4.92L30.75-4.92L30.75-3.89L26.06-3.89L26.06-1.03ZM32.91-8.58L34.08-8.58L34.08 0L32.91 0L32.91-8.58ZM41.58-7.59L38.67-7.59L38.67-8.58L45.61-8.58L45.61-7.59L42.70-7.59L42.70 0L41.58 0L41.58-7.59ZM52.31-3.19L52.31-8.58L53.48-8.58L53.48-3.05Q53.34 0.05 49.97 0.14L49.97 0.14Q46.83 0.05 46.69-2.86L46.69-2.86L46.69-8.58L47.86-8.58L47.86-3.19Q47.91-0.84 50.02-0.80L50.02-0.80Q52.31-0.84 52.31-3.19L52.31-3.19ZM62.20-8.58L58.97-3.47L58.97 0L57.80 0L57.80-3.47L54.56-8.58L55.92-8.58L58.36-4.45L60.84-8.58L62.20-8.58ZM68.91-3.19L68.91-8.58L70.08-8.58L70.08-3.05Q69.94 0.05 66.56 0.14L66.56 0.14Q63.42 0.05 63.28-2.86L63.28-2.86L63.28-8.58L64.45-8.58L64.45-3.19Q64.50-0.84 66.61-0.80L66.61-0.80Q68.91-0.84 68.91-3.19L68.91-3.19ZM73.17-1.03L78.33-1.03L78.33 0L72 0L72-8.58L78.23-8.58L78.23-7.59L73.17-7.59L73.17-4.92L77.86-4.92L77.86-3.89L73.17-3.89L73.17-1.03Z" transform="translate(-0.890625, 8.578125)"></path></g></g></g></g></g><defs v-gra="od"></defs></svg>